<?xml version="1.0" encoding="UTF-8" standalone="no"?><!DOCTYPE svg PUBLIC "-//W3C//DTD SVG 1.1//EN" "http://www.w3.org/Graphics/SVG/1.1/DTD/svg11.dtd"><svg width="100%" height="100%" viewBox="0 0 123 123" version="1.1" xmlns="http://www.w3.org/2000/svg" xmlns:xlink="http://www.w3.org/1999/xlink" xml:space="preserve" xmlns:serif="http://www.serif.com/" style="fill-rule:evenodd;clip-rule:evenodd;stroke-linejoin:round;stroke-miterlimit:1.41421;"><rect id="Artboard1" x="0" y="0" width="122.88" height="122.88" style="fill:none;"/><clipPath id="_clip1"><rect id="Artboard11" serif:id="Artboard1" x="0" y="0" width="122.88" height="122.88"/></clipPath><g clip-path="url(#_clip1)"><circle cx="61.44" cy="61.44" r="61.44" style="fill:url(#_Radial2);"/><path d="M61.837,0.001l0.397,0.004l0.395,0.006l0.396,0.009l0.394,0.011l0.394,0.014l0.394,0.016l0.393,0.019l0.392,0.021l0.391,0.024l0.391,0.026l0.39,0.028l0.39,0.031l0.389,0.034l0.388,0.035l0.387,0.038l0.387,0.041l0.386,0.043l0.385,0.045l0.385,0.048l0.383,0.05l0.384,0.053l0.382,0.054l0.381,0.057l0.381,0.06l0.38,0.062l0.38,0.064l0.378,0.066l0.378,0.069l0.377,0.071l0.376,0.074l0.375,0.075l0.374,0.078l0.374,0.08l0.372,0.083l0.372,0.084l0.371,0.087l0.371,0.09l0.369,0.091l0.368,0.094l0.368,0.096l0.366,0.098l0.366,0.1l0.365,0.102l0.364,0.105l0.363,0.107l0.362,0.109l0.361,0.111l0.36,0.114l0.359,0.115l0.359,0.118l0.357,0.119l0.356,0.122l0.355,0.124l0.355,0.126l0.353,0.129l0.352,0.13l0.352,0.132l0.35,0.135l0.349,0.137l0.348,0.138l0.347,0.141l0.347,0.143l0.345,0.144l0.344,0.147l0.343,0.149l0.341,0.151l0.341,0.153l0.34,0.155l0.338,0.157l0.338,0.159l0.336,0.161l0.335,0.162l0.334,0.165l0.333,0.167l0.332,0.169l0.33,0.17l0.33,0.173l0.328,0.175l0.327,0.176l0.326,0.178l0.324,0.181l0.324,0.182l0.322,0.184l0.321,0.186l0.32,0.188l0.318,0.19l0.318,0.191l0.316,0.194l0.315,0.195l0.313,0.197l0.312,0.199l0.311,0.201l0.31,0.202l0.309,0.205l0.307,0.206l0.306,0.208l0.304,0.21l0.303,0.211l0.302,0.214l0.3,0.215l0.3,0.217l0.297,0.218l0.297,0.221l0.295,0.222l0.293,0.224l0.293,0.225l0.291,0.227l0.289,0.229l0.288,0.231l0.287,0.232l0.285,0.234l0.284,0.236l0.282,0.237l0.281,0.239l0.28,0.241l0.278,0.242l0.276,0.244l0.275,0.246l0.274,0.247l0.272,0.249l0.271,0.25l0.269,0.252l0.267,0.254l0.266,0.255l0.265,0.257l0.263,0.258l0.261,0.26l0.26,0.261l0.258,0.263l0.257,0.265l0.255,0.266l0.254,0.267l0.252,0.269l0.25,0.271l0.249,0.272l0.247,0.274l0.246,0.275l0.244,0.276l0.242,0.278l0.241,0.28l0.239,0.281l0.237,0.282l0.236,0.284l0.234,0.285l0.232,0.287l0.231,0.288l0.229,0.289l0.227,0.291l0.225,0.293l0.224,0.293l0.222,0.295l0.221,0.297l0.218,0.297l0.217,0.3l0.215,0.3l0.214,0.302l0.211,0.303l0.21,0.304l0.208,0.306l0.206,0.307l0.205,0.309l0.202,0.31l0.201,0.311l0.199,0.312l0.197,0.313l0.195,0.315l0.194,0.316l0.191,0.318l0.19,0.318l0.188,0.32l0.186,0.321l0.184,0.322l0.182,0.324l0.181,0.324l0.178,0.326l0.176,0.327l0.175,0.328l0.173,0.33l0.17,0.33l0.169,0.332l0.167,0.333l0.165,0.334l0.162,0.335l0.161,0.336l0.159,0.338l0.157,0.338l0.155,0.34l0.153,0.341l0.151,0.341l0.149,0.343l0.147,0.344l0.144,0.345l0.143,0.347l0.141,0.347l0.138,0.348l0.137,0.349l0.135,0.35l0.132,0.352l0.13,0.352l0.129,0.353l0.126,0.355l0.124,0.355l0.122,0.356l0.119,0.357l0.118,0.359l0.115,0.359l0.114,0.36l0.111,0.361l0.109,0.362l0.107,0.363l0.105,0.364l0.102,0.365l0.1,0.366l0.098,0.366l0.096,0.368l0.094,0.368l0.091,0.369l0.09,0.371l0.087,0.371l0.084,0.372l0.083,0.372l0.08,0.374l0.078,0.374l0.075,0.375l0.074,0.376l0.071,0.377l0.069,0.378l0.066,0.378l0.064,0.38l0.062,0.38l0.06,0.381l0.057,0.381l0.054,0.382l0.053,0.384l0.05,0.383l0.048,0.385l0.045,0.385l0.043,0.386l0.041,0.387l0.038,0.387l0.035,0.388l0.034,0.389l0.031,0.39l0.028,0.39l0.026,0.391l0.024,0.391l0.021,0.392l0.019,0.393l0.016,0.394l0.014,0.394l0.011,0.394l0.009,0.396l0.006,0.395l0.004,0.397l0.001,0.397l-0.001,0.397l-0.004,0.397l-0.006,0.395l-0.009,0.396l-0.011,0.394l-0.014,0.394l-0.016,0.394l-0.019,0.393l-0.021,0.392l-0.024,0.391l-0.026,0.391l-0.028,0.39l-0.031,0.39l-0.034,0.389l-0.035,0.388l-0.038,0.387l-0.041,0.387l-0.043,0.386l-0.045,0.385l-0.048,0.385l-0.05,0.383l-0.053,0.384l-0.054,0.382l-0.057,0.381l-0.06,0.381l-0.062,0.38l-0.064,0.38l-0.066,0.378l-0.069,0.378l-0.071,0.377l-0.074,0.376l-0.075,0.375l-0.078,0.374l-0.08,0.374l-0.083,0.372l-0.084,0.372l-0.087,0.371l-0.09,0.371l-0.091,0.369l-0.094,0.368l-0.096,0.368l-0.098,0.366l-0.1,0.366l-0.102,0.365l-0.105,0.364l-0.107,0.363l-0.109,0.362l-0.111,0.361l-0.114,0.36l-0.115,0.359l-0.118,0.359l-0.119,0.357l-0.122,0.356l-0.124,0.355l-0.126,0.355l-0.129,0.353l-0.13,0.352l-0.132,0.352l-0.135,0.35l-0.137,0.349l-0.138,0.348l-0.141,0.347l-0.143,0.347l-0.144,0.345l-0.147,0.344l-0.149,0.343l-0.151,0.341l-0.153,0.341l-0.155,0.34l-0.157,0.338l-0.159,0.338l-0.161,0.336l-0.162,0.335l-0.165,0.334l-0.167,0.333l-0.169,0.332l-0.17,0.33l-0.173,0.33l-0.175,0.328l-0.176,0.327l-0.178,0.326l-0.181,0.324l-0.182,0.324l-0.184,0.322l-0.186,0.321l-0.188,0.32l-0.19,0.318l-0.191,0.318l-0.194,0.316l-0.195,0.315l-0.197,0.313l-0.199,0.312l-0.201,0.311l-0.202,0.31l-0.205,0.309l-0.206,0.307l-0.208,0.306l-0.21,0.304l-0.211,0.303l-0.214,0.302l-0.215,0.3l-0.217,0.3l-0.218,0.297l-0.221,0.297l-0.222,0.295l-0.224,0.293l-0.225,0.293l-0.227,0.291l-0.229,0.289l-0.231,0.288l-0.232,0.287l-0.234,0.285l-0.236,0.284l-0.237,0.282l-0.239,0.281l-0.241,0.28l-0.242,0.278l-0.244,0.276l-0.246,0.275l-0.247,0.274l-0.249,0.272l-0.25,0.271l-0.252,0.269l-0.254,0.267l-0.255,0.266l-0.257,0.265l-0.258,0.263l-0.26,0.261l-0.261,0.26l-0.263,0.258l-0.265,0.257l-0.266,0.255l-0.267,0.254l-0.269,0.252l-0.271,0.25l-0.272,0.249l-0.274,0.247l-0.275,0.246l-0.276,0.244l-0.278,0.242l-0.28,0.241l-0.281,0.239l-0.282,0.237l-0.284,0.236l-0.285,0.234l-0.287,0.232l-0.288,0.231l-0.289,0.229l-0.291,0.227l-0.293,0.225l-0.293,0.224l-0.295,0.222l-0.297,0.221l-0.297,0.218l-0.3,0.217l-0.3,0.215l-0.302,0.214l-0.303,0.211l-0.304,0.21l-0.306,0.208l-0.307,0.206l-0.309,0.205l-0.31,0.202l-0.311,0.201l-0.312,0.199l-0.313,0.197l-0.315,0.195l-0.316,0.194l-0.318,0.191l-0.318,0.19l-0.32,0.188l-0.321,0.186l-0.322,0.184l-0.324,0.182l-0.324,0.181l-0.326,0.178l-0.327,0.176l-0.328,0.175l-0.33,0.173l-0.33,0.17l-0.332,0.169l-0.333,0.167l-0.334,0.165l-0.335,0.162l-0.336,0.161l-0.338,0.159l-0.338,0.157l-0.34,0.155l-0.341,0.153l-0.341,0.151l-0.343,0.149l-0.344,0.147l-0.345,0.144l-0.347,0.143l-0.347,0.141l-0.348,0.138l-0.349,0.137l-0.35,0.135l-0.352,0.132l-0.352,0.13l-0.353,0.129l-0.355,0.126l-0.355,0.124l-0.356,0.122l-0.357,0.119l-0.359,0.118l-0.359,0.115l-0.36,0.114l-0.361,0.111l-0.362,0.109l-0.363,0.107l-0.364,0.105l-0.365,0.102l-0.366,0.1l-0.366,0.098l-0.368,0.096l-0.368,0.094l-0.369,0.091l-0.371,0.09l-0.371,0.087l-0.372,0.084l-0.372,0.083l-0.374,0.08l-0.374,0.078l-0.375,0.075l-0.376,0.074l-0.377,0.071l-0.378,0.069l-0.378,0.066l-0.38,0.064l-0.38,0.062l-0.381,0.06l-0.381,0.057l-0.382,0.054l-0.384,0.053l-0.383,0.05l-0.385,0.048l-0.385,0.045l-0.386,0.043l-0.387,0.041l-0.387,0.038l-0.388,0.035l-0.389,0.034l-0.39,0.031l-0.39,0.028l-0.391,0.026l-0.391,0.024l-0.392,0.021l-0.393,0.019l-0.394,0.016l-0.394,0.014l-0.394,0.011l-0.396,0.009l-0.395,0.006l-0.397,0.004l-0.397,0.001l-0.397,-0.001l-0.397,-0.004l-0.395,-0.006l-0.396,-0.009l-0.394,-0.011l-0.394,-0.014l-0.394,-0.016l-0.393,-0.019l-0.392,-0.021l-0.391,-0.024l-0.391,-0.026l-0.39,-0.028l-0.39,-0.031l-0.389,-0.034l-0.388,-0.035l-0.387,-0.038l-0.387,-0.041l-0.386,-0.043l-0.385,-0.045l-0.385,-0.048l-0.383,-0.05l-0.384,-0.053l-0.382,-0.054l-0.381,-0.057l-0.381,-0.06l-0.38,-0.062l-0.38,-0.064l-0.378,-0.066l-0.378,-0.069l-0.377,-0.071l-0.376,-0.074l-0.375,-0.075l-0.374,-0.078l-0.374,-0.08l-0.372,-0.083l-0.372,-0.084l-0.371,-0.087l-0.371,-0.09l-0.369,-0.091l-0.368,-0.094l-0.368,-0.096l-0.366,-0.098l-0.366,-0.1l-0.365,-0.102l-0.364,-0.105l-0.363,-0.107l-0.362,-0.109l-0.361,-0.111l-0.36,-0.114l-0.359,-0.115l-0.359,-0.118l-0.357,-0.119l-0.356,-0.122l-0.355,-0.124l-0.355,-0.126l-0.353,-0.129l-0.352,-0.13l-0.352,-0.132l-0.35,-0.135l-0.349,-0.137l-0.348,-0.138l-0.347,-0.141l-0.347,-0.143l-0.345,-0.144l-0.344,-0.147l-0.343,-0.149l-0.341,-0.151l-0.341,-0.153l-0.34,-0.155l-0.338,-0.157l-0.338,-0.159l-0.336,-0.161l-0.335,-0.162l-0.334,-0.165l-0.333,-0.167l-0.332,-0.169l-0.33,-0.17l-0.33,-0.173l-0.328,-0.175l-0.327,-0.176l-0.326,-0.178l-0.324,-0.181l-0.324,-0.182l-0.322,-0.184l-0.321,-0.186l-0.32,-0.188l-0.318,-0.19l-0.318,-0.191l-0.316,-0.194l-0.315,-0.195l-0.313,-0.197l-0.312,-0.199l-0.311,-0.201l-0.31,-0.202l-0.309,-0.205l-0.307,-0.206l-0.306,-0.208l-0.304,-0.21l-0.303,-0.211l-0.302,-0.214l-0.3,-0.215l-0.3,-0.217l-0.297,-0.218l-0.297,-0.221l-0.295,-0.222l-0.293,-0.224l-0.293,-0.225l-0.291,-0.227l-0.289,-0.229l-0.288,-0.231l-0.287,-0.232l-0.285,-0.234l-0.284,-0.236l-0.282,-0.237l-0.281,-0.239l-0.28,-0.241l-0.278,-0.242l-0.276,-0.244l-0.275,-0.246l-0.274,-0.247l-0.272,-0.249l-0.271,-0.25l-0.269,-0.252l-0.267,-0.254l-0.266,-0.255l-0.265,-0.257l-0.263,-0.258l-0.261,-0.26l-0.26,-0.261l-0.258,-0.263l-0.257,-0.265l-0.255,-0.266l-0.254,-0.267l-0.252,-0.269l-0.25,-0.271l-0.249,-0.272l-0.247,-0.274l-0.246,-0.275l-0.244,-0.276l-0.242,-0.278l-0.241,-0.28l-0.239,-0.281l-0.237,-0.282l-0.236,-0.284l-0.234,-0.285l-0.232,-0.287l-0.231,-0.288l-0.229,-0.289l-0.227,-0.291l-0.225,-0.293l-0.224,-0.293l-0.222,-0.295l-0.221,-0.297l-0.218,-0.297l-0.217,-0.3l-0.215,-0.3l-0.214,-0.302l-0.211,-0.303l-0.21,-0.304l-0.208,-0.306l-0.206,-0.307l-0.205,-0.309l-0.202,-0.31l-0.201,-0.311l-0.199,-0.312l-0.197,-0.313l-0.195,-0.315l-0.194,-0.316l-0.191,-0.318l-0.19,-0.318l-0.188,-0.32l-0.186,-0.321l-0.184,-0.322l-0.182,-0.324l-0.181,-0.324l-0.178,-0.326l-0.176,-0.327l-0.175,-0.328l-0.173,-0.33l-0.17,-0.33l-0.169,-0.332l-0.167,-0.333l-0.165,-0.334l-0.162,-0.335l-0.161,-0.336l-0.159,-0.338l-0.157,-0.338l-0.155,-0.34l-0.153,-0.341l-0.151,-0.341l-0.149,-0.343l-0.147,-0.344l-0.144,-0.345l-0.143,-0.347l-0.141,-0.347l-0.138,-0.348l-0.137,-0.349l-0.135,-0.35l-0.132,-0.352l-0.13,-0.352l-0.129,-0.353l-0.126,-0.355l-0.124,-0.355l-0.122,-0.356l-0.119,-0.357l-0.118,-0.359l-0.115,-0.359l-0.114,-0.36l-0.111,-0.361l-0.109,-0.362l-0.107,-0.363l-0.105,-0.364l-0.102,-0.365l-0.1,-0.366l-0.098,-0.366l-0.096,-0.368l-0.094,-0.368l-0.091,-0.369l-0.09,-0.371l-0.087,-0.371l-0.084,-0.372l-0.083,-0.372l-0.08,-0.374l-0.078,-0.374l-0.075,-0.375l-0.074,-0.376l-0.071,-0.377l-0.069,-0.378l-0.066,-0.378l-0.064,-0.38l-0.062,-0.38l-0.06,-0.381l-0.057,-0.381l-0.054,-0.382l-0.053,-0.384l-0.05,-0.383l-0.048,-0.385l-0.045,-0.385l-0.043,-0.386l-0.041,-0.387l-0.038,-0.387l-0.035,-0.388l-0.034,-0.389l-0.031,-0.39l-0.028,-0.39l-0.026,-0.391l-0.024,-0.391l-0.021,-0.392l-0.019,-0.393l-0.016,-0.394l-0.014,-0.394l-0.011,-0.394l-0.009,-0.396l-0.006,-0.395l-0.004,-0.397l-0.001,-0.397l0.001,-0.397l0.004,-0.397l0.006,-0.395l0.009,-0.396l0.011,-0.394l0.014,-0.394l0.016,-0.394l0.019,-0.393l0.021,-0.392l0.024,-0.391l0.026,-0.391l0.028,-0.39l0.031,-0.39l0.034,-0.389l0.035,-0.388l0.038,-0.387l0.041,-0.387l0.043,-0.386l0.045,-0.385l0.048,-0.385l0.05,-0.383l0.053,-0.384l0.054,-0.382l0.057,-0.381l0.06,-0.381l0.062,-0.38l0.064,-0.38l0.066,-0.378l0.069,-0.378l0.071,-0.377l0.074,-0.376l0.075,-0.375l0.078,-0.374l0.08,-0.374l0.083,-0.372l0.084,-0.372l0.087,-0.371l0.09,-0.371l0.091,-0.369l0.094,-0.368l0.096,-0.368l0.098,-0.366l0.1,-0.366l0.102,-0.365l0.105,-0.364l0.107,-0.363l0.109,-0.362l0.111,-0.361l0.114,-0.36l0.115,-0.359l0.118,-0.359l0.119,-0.357l0.122,-0.356l0.124,-0.355l0.126,-0.355l0.129,-0.353l0.13,-0.352l0.132,-0.352l0.135,-0.35l0.137,-0.349l0.138,-0.348l0.141,-0.347l0.143,-0.347l0.144,-0.345l0.147,-0.344l0.149,-0.343l0.151,-0.341l0.153,-0.341l0.155,-0.34l0.157,-0.338l0.159,-0.338l0.161,-0.336l0.162,-0.335l0.165,-0.334l0.167,-0.333l0.169,-0.332l0.17,-0.33l0.173,-0.33l0.175,-0.328l0.176,-0.327l0.178,-0.326l0.181,-0.324l0.182,-0.324l0.184,-0.322l0.186,-0.321l0.188,-0.32l0.19,-0.318l0.191,-0.318l0.194,-0.316l0.195,-0.315l0.197,-0.313l0.199,-0.312l0.201,-0.311l0.202,-0.31l0.205,-0.309l0.206,-0.307l0.208,-0.306l0.21,-0.304l0.211,-0.303l0.214,-0.302l0.215,-0.3l0.217,-0.3l0.218,-0.297l0.221,-0.297l0.222,-0.295l0.224,-0.293l0.225,-0.293l0.227,-0.291l0.229,-0.289l0.231,-0.288l0.232,-0.287l0.234,-0.285l0.236,-0.284l0.237,-0.282l0.239,-0.281l0.241,-0.28l0.242,-0.278l0.244,-0.276l0.246,-0.275l0.247,-0.274l0.249,-0.272l0.25,-0.271l0.252,-0.269l0.254,-0.267l0.255,-0.266l0.257,-0.265l0.258,-0.263l0.26,-0.261l0.261,-0.26l0.263,-0.258l0.265,-0.257l0.266,-0.255l0.267,-0.254l0.269,-0.252l0.271,-0.25l0.272,-0.249l0.274,-0.247l0.275,-0.246l0.276,-0.244l0.278,-0.242l0.28,-0.241l0.281,-0.239l0.282,-0.237l0.284,-0.236l0.285,-0.234l0.287,-0.232l0.288,-0.231l0.289,-0.229l0.291,-0.227l0.293,-0.225l0.293,-0.224l0.295,-0.222l0.297,-0.221l0.297,-0.218l0.3,-0.217l0.3,-0.215l0.302,-0.214l0.303,-0.211l0.304,-0.21l0.306,-0.208l0.307,-0.206l0.309,-0.205l0.31,-0.202l0.311,-0.201l0.312,-0.199l0.313,-0.197l0.315,-0.195l0.316,-0.194l0.318,-0.191l0.318,-0.19l0.32,-0.188l0.321,-0.186l0.322,-0.184l0.324,-0.182l0.324,-0.181l0.326,-0.178l0.327,-0.176l0.328,-0.175l0.33,-0.173l0.33,-0.17l0.332,-0.169l0.333,-0.167l0.334,-0.165l0.335,-0.162l0.336,-0.161l0.338,-0.159l0.338,-0.157l0.34,-0.155l0.341,-0.153l0.341,-0.151l0.343,-0.149l0.344,-0.147l0.345,-0.144l0.347,-0.143l0.347,-0.141l0.348,-0.138l0.349,-0.137l0.35,-0.135l0.352,-0.132l0.352,-0.13l0.353,-0.129l0.355,-0.126l0.355,-0.124l0.356,-0.122l0.357,-0.119l0.359,-0.118l0.359,-0.115l0.36,-0.114l0.361,-0.111l0.362,-0.109l0.363,-0.107l0.364,-0.105l0.365,-0.102l0.366,-0.1l0.366,-0.098l0.368,-0.096l0.368,-0.094l0.369,-0.091l0.371,-0.09l0.371,-0.087l0.372,-0.084l0.372,-0.083l0.374,-0.08l0.374,-0.078l0.375,-0.075l0.376,-0.074l0.377,-0.071l0.378,-0.069l0.378,-0.066l0.38,-0.064l0.38,-0.062l0.381,-0.06l0.381,-0.057l0.382,-0.054l0.384,-0.053l0.383,-0.05l0.385,-0.048l0.385,-0.045l0.386,-0.043l0.387,-0.041l0.387,-0.038l0.388,-0.035l0.389,-0.034l0.39,-0.031l0.39,-0.028l0.391,-0.026l0.391,-0.024l0.392,-0.021l0.393,-0.019l0.394,-0.016l0.394,-0.014l0.394,-0.011l0.396,-0.009l0.395,-0.006l0.397,-0.004l0.397,-0.001l0.397,0.001Zm-0.782,1.834l-0.385,0.003l-0.385,0.006l-0.383,0.009l-0.383,0.011l-0.383,0.013l-0.382,0.016l-0.381,0.018l-0.38,0.021l-0.38,0.022l-0.379,0.026l-0.379,0.027l-0.378,0.03l-0.377,0.033l-0.377,0.034l-0.376,0.037l-0.375,0.04l-0.374,0.041l-0.374,0.044l-0.373,0.047l-0.373,0.048l-0.371,0.051l-0.371,0.053l-0.37,0.056l-0.37,0.057l-0.368,0.06l-0.368,0.063l-0.367,0.064l-0.367,0.067l-0.365,0.069l-0.365,0.071l-0.364,0.073l-0.363,0.076l-0.362,0.078l-0.362,0.08l-0.361,0.082l-0.359,0.084l-0.359,0.087l-0.359,0.088l-0.357,0.091l-0.356,0.093l-0.356,0.095l-0.355,0.098l-0.354,0.099l-0.353,0.101l-0.352,0.104l-0.351,0.106l-0.35,0.108l-0.349,0.11l-0.349,0.112l-0.347,0.114l-0.347,0.116l-0.345,0.118l-0.345,0.12l-0.344,0.123l-0.342,0.124l-0.342,0.127l-0.341,0.128l-0.339,0.13l-0.339,0.133l-0.338,0.134l-0.337,0.137l-0.335,0.138l-0.335,0.141l-0.334,0.142l-0.332,0.145l-0.332,0.146l-0.33,0.148l-0.33,0.151l-0.328,0.152l-0.327,0.154l-0.327,0.156l-0.325,0.158l-0.324,0.16l-0.323,0.162l-0.321,0.163l-0.321,0.166l-0.32,0.167l-0.318,0.17l-0.317,0.171l-0.317,0.173l-0.314,0.175l-0.314,0.177l-0.313,0.178l-0.311,0.181l-0.311,0.182l-0.309,0.184l-0.307,0.186l-0.307,0.187l-0.306,0.19l-0.304,0.191l-0.303,0.193l-0.301,0.195l-0.301,0.197l-0.299,0.198l-0.298,0.2l-0.297,0.202l-0.295,0.203l-0.294,0.206l-0.293,0.207l-0.292,0.208l-0.29,0.211l-0.289,0.212l-0.288,0.214l-0.286,0.215l-0.285,0.217l-0.283,0.219l-0.283,0.221l-0.281,0.222l-0.279,0.224l-0.278,0.225l-0.277,0.227l-0.275,0.229l-0.274,0.23l-0.273,0.232l-0.271,0.234l-0.27,0.235l-0.268,0.236l-0.267,0.239l-0.266,0.24l-0.264,0.241l-0.262,0.243l-0.261,0.245l-0.26,0.246l-0.258,0.247l-0.257,0.249l-0.255,0.251l-0.254,0.252l-0.252,0.254l-0.251,0.255l-0.249,0.257l-0.247,0.258l-0.246,0.26l-0.245,0.261l-0.243,0.262l-0.241,0.264l-0.24,0.266l-0.239,0.267l-0.236,0.268l-0.235,0.27l-0.234,0.271l-0.232,0.273l-0.23,0.274l-0.229,0.275l-0.227,0.277l-0.225,0.278l-0.224,0.279l-0.222,0.281l-0.221,0.283l-0.219,0.283l-0.217,0.285l-0.215,0.286l-0.214,0.288l-0.212,0.289l-0.211,0.29l-0.208,0.292l-0.207,0.293l-0.206,0.294l-0.203,0.295l-0.202,0.297l-0.2,0.298l-0.198,0.299l-0.197,0.301l-0.195,0.301l-0.193,0.303l-0.191,0.304l-0.19,0.306l-0.187,0.307l-0.186,0.307l-0.184,0.309l-0.182,0.311l-0.181,0.311l-0.178,0.313l-0.177,0.314l-0.175,0.314l-0.173,0.317l-0.171,0.317l-0.17,0.318l-0.167,0.32l-0.166,0.321l-0.163,0.321l-0.162,0.323l-0.16,0.324l-0.158,0.325l-0.156,0.327l-0.154,0.327l-0.152,0.328l-0.151,0.33l-0.148,0.33l-0.146,0.332l-0.145,0.332l-0.142,0.334l-0.141,0.335l-0.138,0.335l-0.137,0.337l-0.134,0.338l-0.133,0.339l-0.13,0.339l-0.128,0.341l-0.127,0.342l-0.124,0.342l-0.123,0.344l-0.12,0.345l-0.118,0.345l-0.116,0.347l-0.114,0.347l-0.112,0.349l-0.11,0.349l-0.108,0.35l-0.106,0.351l-0.104,0.352l-0.101,0.353l-0.099,0.354l-0.098,0.355l-0.095,0.356l-0.093,0.356l-0.091,0.357l-0.088,0.359l-0.087,0.359l-0.084,0.359l-0.082,0.361l-0.08,0.362l-0.078,0.362l-0.076,0.363l-0.073,0.364l-0.071,0.365l-0.069,0.365l-0.067,0.367l-0.064,0.367l-0.063,0.368l-0.06,0.368l-0.057,0.37l-0.056,0.37l-0.053,0.371l-0.051,0.371l-0.048,0.373l-0.047,0.373l-0.044,0.374l-0.041,0.374l-0.04,0.375l-0.037,0.376l-0.034,0.377l-0.033,0.377l-0.03,0.378l-0.027,0.379l-0.026,0.379l-0.022,0.38l-0.021,0.38l-0.018,0.381l-0.016,0.382l-0.013,0.383l-0.011,0.383l-0.009,0.383l-0.006,0.385l-0.003,0.385l-0.002,0.385l0.002,0.385l0.003,0.385l0.006,0.385l0.009,0.383l0.011,0.383l0.013,0.383l0.016,0.382l0.018,0.381l0.021,0.38l0.022,0.38l0.026,0.379l0.027,0.379l0.03,0.378l0.033,0.377l0.034,0.377l0.037,0.376l0.04,0.375l0.041,0.374l0.044,0.374l0.047,0.373l0.048,0.373l0.051,0.371l0.053,0.371l0.056,0.37l0.057,0.37l0.06,0.368l0.063,0.368l0.064,0.367l0.067,0.367l0.069,0.365l0.071,0.365l0.073,0.364l0.076,0.363l0.078,0.362l0.08,0.362l0.082,0.361l0.084,0.359l0.087,0.359l0.088,0.359l0.091,0.357l0.093,0.356l0.095,0.356l0.098,0.355l0.099,0.354l0.101,0.353l0.104,0.352l0.106,0.351l0.108,0.35l0.11,0.349l0.112,0.349l0.114,0.347l0.116,0.347l0.118,0.345l0.12,0.345l0.123,0.344l0.124,0.342l0.127,0.342l0.128,0.341l0.13,0.339l0.133,0.339l0.134,0.338l0.137,0.337l0.138,0.335l0.141,0.335l0.142,0.334l0.145,0.332l0.146,0.332l0.148,0.33l0.151,0.33l0.152,0.328l0.154,0.327l0.156,0.327l0.158,0.325l0.16,0.324l0.162,0.323l0.163,0.321l0.166,0.321l0.167,0.32l0.17,0.318l0.171,0.317l0.173,0.317l0.175,0.314l0.177,0.314l0.178,0.313l0.181,0.311l0.182,0.311l0.184,0.309l0.186,0.307l0.187,0.307l0.19,0.306l0.191,0.304l0.193,0.303l0.195,0.301l0.197,0.301l0.198,0.299l0.2,0.298l0.202,0.297l0.203,0.295l0.206,0.294l0.207,0.293l0.208,0.292l0.211,0.29l0.212,0.289l0.214,0.288l0.215,0.286l0.217,0.285l0.219,0.283l0.221,0.283l0.222,0.281l0.224,0.279l0.225,0.278l0.227,0.277l0.229,0.275l0.23,0.274l0.232,0.273l0.234,0.271l0.235,0.27l0.236,0.268l0.239,0.267l0.24,0.266l0.241,0.264l0.243,0.262l0.245,0.261l0.246,0.26l0.247,0.258l0.249,0.257l0.251,0.255l0.252,0.254l0.254,0.252l0.255,0.251l0.257,0.249l0.258,0.247l0.26,0.246l0.261,0.245l0.262,0.243l0.264,0.241l0.266,0.24l0.267,0.239l0.268,0.236l0.27,0.235l0.271,0.234l0.273,0.232l0.274,0.23l0.275,0.229l0.277,0.227l0.278,0.225l0.279,0.224l0.281,0.222l0.283,0.221l0.283,0.219l0.285,0.217l0.286,0.215l0.288,0.214l0.289,0.212l0.29,0.211l0.292,0.208l0.293,0.207l0.294,0.206l0.295,0.203l0.297,0.202l0.298,0.2l0.299,0.198l0.301,0.197l0.301,0.195l0.303,0.193l0.304,0.191l0.306,0.19l0.307,0.187l0.307,0.186l0.309,0.184l0.311,0.182l0.311,0.181l0.313,0.178l0.314,0.177l0.314,0.175l0.317,0.173l0.317,0.171l0.318,0.17l0.32,0.167l0.321,0.166l0.321,0.163l0.323,0.162l0.324,0.16l0.325,0.158l0.327,0.156l0.327,0.154l0.328,0.152l0.33,0.151l0.33,0.148l0.332,0.146l0.332,0.145l0.334,0.142l0.335,0.141l0.335,0.138l0.337,0.137l0.338,0.134l0.339,0.133l0.339,0.13l0.341,0.128l0.342,0.127l0.342,0.124l0.344,0.123l0.345,0.12l0.345,0.118l0.347,0.116l0.347,0.114l0.349,0.112l0.349,0.11l0.35,0.108l0.351,0.106l0.352,0.104l0.353,0.101l0.354,0.099l0.355,0.098l0.356,0.095l0.356,0.093l0.357,0.091l0.359,0.088l0.359,0.087l0.359,0.084l0.361,0.082l0.362,0.08l0.362,0.078l0.363,0.076l0.364,0.073l0.365,0.071l0.365,0.069l0.367,0.067l0.367,0.064l0.368,0.063l0.368,0.06l0.37,0.057l0.37,0.056l0.371,0.053l0.371,0.051l0.373,0.048l0.373,0.047l0.374,0.044l0.374,0.041l0.375,0.04l0.376,0.037l0.377,0.034l0.377,0.033l0.378,0.03l0.379,0.027l0.379,0.026l0.38,0.022l0.38,0.021l0.381,0.018l0.382,0.016l0.383,0.013l0.383,0.011l0.383,0.009l0.385,0.006l0.385,0.003l0.385,0.002l0.385,-0.002l0.385,-0.003l0.385,-0.006l0.383,-0.009l0.383,-0.011l0.383,-0.013l0.382,-0.016l0.381,-0.018l0.38,-0.021l0.38,-0.022l0.379,-0.026l0.379,-0.027l0.378,-0.03l0.377,-0.033l0.377,-0.034l0.376,-0.037l0.375,-0.04l0.374,-0.041l0.374,-0.044l0.373,-0.047l0.373,-0.048l0.371,-0.051l0.371,-0.053l0.37,-0.056l0.37,-0.057l0.368,-0.06l0.368,-0.063l0.367,-0.064l0.367,-0.067l0.365,-0.069l0.365,-0.071l0.364,-0.073l0.363,-0.076l0.362,-0.078l0.362,-0.08l0.361,-0.082l0.359,-0.084l0.359,-0.087l0.359,-0.088l0.357,-0.091l0.356,-0.093l0.356,-0.095l0.355,-0.098l0.354,-0.099l0.353,-0.101l0.352,-0.104l0.351,-0.106l0.35,-0.108l0.349,-0.11l0.349,-0.112l0.347,-0.114l0.347,-0.116l0.345,-0.118l0.345,-0.12l0.344,-0.123l0.342,-0.124l0.342,-0.127l0.341,-0.128l0.339,-0.13l0.339,-0.133l0.338,-0.134l0.337,-0.137l0.335,-0.138l0.335,-0.141l0.334,-0.142l0.332,-0.145l0.332,-0.146l0.33,-0.148l0.33,-0.151l0.328,-0.152l0.327,-0.154l0.327,-0.156l0.325,-0.158l0.324,-0.16l0.323,-0.162l0.321,-0.163l0.321,-0.166l0.32,-0.167l0.318,-0.17l0.317,-0.171l0.317,-0.173l0.314,-0.175l0.314,-0.177l0.313,-0.178l0.311,-0.181l0.311,-0.182l0.309,-0.184l0.307,-0.186l0.307,-0.187l0.306,-0.19l0.304,-0.191l0.303,-0.193l0.301,-0.195l0.301,-0.197l0.299,-0.198l0.298,-0.2l0.297,-0.202l0.295,-0.203l0.294,-0.206l0.293,-0.207l0.292,-0.208l0.29,-0.211l0.289,-0.212l0.288,-0.214l0.286,-0.215l0.285,-0.217l0.283,-0.219l0.283,-0.221l0.281,-0.222l0.279,-0.224l0.278,-0.225l0.277,-0.227l0.275,-0.229l0.274,-0.23l0.273,-0.232l0.271,-0.234l0.27,-0.235l0.268,-0.236l0.267,-0.239l0.266,-0.24l0.264,-0.241l0.262,-0.243l0.261,-0.245l0.26,-0.246l0.258,-0.247l0.257,-0.249l0.255,-0.251l0.254,-0.252l0.252,-0.254l0.251,-0.255l0.249,-0.257l0.247,-0.258l0.246,-0.26l0.245,-0.261l0.243,-0.262l0.241,-0.264l0.24,-0.266l0.239,-0.267l0.236,-0.268l0.235,-0.27l0.234,-0.271l0.232,-0.273l0.23,-0.274l0.229,-0.275l0.227,-0.277l0.225,-0.278l0.224,-0.279l0.222,-0.281l0.221,-0.283l0.219,-0.283l0.217,-0.285l0.215,-0.286l0.214,-0.288l0.212,-0.289l0.211,-0.29l0.208,-0.292l0.207,-0.293l0.206,-0.294l0.203,-0.295l0.202,-0.297l0.2,-0.298l0.198,-0.299l0.197,-0.301l0.195,-0.301l0.193,-0.303l0.191,-0.304l0.19,-0.306l0.187,-0.307l0.186,-0.307l0.184,-0.309l0.182,-0.311l0.181,-0.311l0.178,-0.313l0.177,-0.314l0.175,-0.314l0.173,-0.317l0.171,-0.317l0.17,-0.318l0.167,-0.32l0.166,-0.321l0.163,-0.321l0.162,-0.323l0.16,-0.324l0.158,-0.325l0.156,-0.327l0.154,-0.327l0.152,-0.328l0.151,-0.33l0.148,-0.33l0.146,-0.332l0.145,-0.332l0.142,-0.334l0.141,-0.335l0.138,-0.335l0.137,-0.337l0.134,-0.338l0.133,-0.339l0.13,-0.339l0.128,-0.341l0.127,-0.342l0.124,-0.342l0.123,-0.344l0.12,-0.345l0.118,-0.345l0.116,-0.347l0.114,-0.347l0.112,-0.349l0.11,-0.349l0.108,-0.35l0.106,-0.351l0.104,-0.352l0.101,-0.353l0.099,-0.354l0.098,-0.355l0.095,-0.356l0.093,-0.356l0.091,-0.357l0.088,-0.359l0.087,-0.359l0.084,-0.359l0.082,-0.361l0.08,-0.362l0.078,-0.362l0.076,-0.363l0.073,-0.364l0.071,-0.365l0.069,-0.365l0.067,-0.367l0.064,-0.367l0.063,-0.368l0.06,-0.368l0.057,-0.37l0.056,-0.37l0.053,-0.371l0.051,-0.371l0.048,-0.373l0.047,-0.373l0.044,-0.374l0.041,-0.374l0.04,-0.375l0.037,-0.376l0.034,-0.377l0.033,-0.377l0.03,-0.378l0.027,-0.379l0.026,-0.379l0.022,-0.38l0.021,-0.38l0.018,-0.381l0.016,-0.382l0.013,-0.383l0.011,-0.383l0.009,-0.383l0.006,-0.385l0.003,-0.385l0.002,-0.385l-0.002,-0.385l-0.003,-0.385l-0.006,-0.385l-0.009,-0.383l-0.011,-0.383l-0.013,-0.383l-0.016,-0.382l-0.018,-0.381l-0.021,-0.38l-0.022,-0.38l-0.026,-0.379l-0.027,-0.379l-0.03,-0.378l-0.033,-0.377l-0.034,-0.377l-0.037,-0.376l-0.04,-0.375l-0.041,-0.374l-0.044,-0.374l-0.047,-0.373l-0.048,-0.373l-0.051,-0.371l-0.053,-0.371l-0.056,-0.37l-0.057,-0.37l-0.06,-0.368l-0.063,-0.368l-0.064,-0.367l-0.067,-0.367l-0.069,-0.365l-0.071,-0.365l-0.073,-0.364l-0.076,-0.363l-0.078,-0.362l-0.08,-0.362l-0.082,-0.361l-0.084,-0.359l-0.087,-0.359l-0.088,-0.359l-0.091,-0.357l-0.093,-0.356l-0.095,-0.356l-0.098,-0.355l-0.099,-0.354l-0.101,-0.353l-0.104,-0.352l-0.106,-0.351l-0.108,-0.35l-0.11,-0.349l-0.112,-0.349l-0.114,-0.347l-0.116,-0.347l-0.118,-0.345l-0.12,-0.345l-0.123,-0.344l-0.124,-0.342l-0.127,-0.342l-0.128,-0.341l-0.13,-0.339l-0.133,-0.339l-0.134,-0.338l-0.137,-0.337l-0.138,-0.335l-0.141,-0.335l-0.142,-0.334l-0.145,-0.332l-0.146,-0.332l-0.148,-0.33l-0.151,-0.33l-0.152,-0.328l-0.154,-0.327l-0.156,-0.327l-0.158,-0.325l-0.16,-0.324l-0.162,-0.323l-0.163,-0.321l-0.166,-0.321l-0.167,-0.32l-0.17,-0.318l-0.171,-0.317l-0.173,-0.317l-0.175,-0.314l-0.177,-0.314l-0.178,-0.313l-0.181,-0.311l-0.182,-0.311l-0.184,-0.309l-0.186,-0.307l-0.187,-0.307l-0.19,-0.306l-0.191,-0.304l-0.193,-0.303l-0.195,-0.301l-0.197,-0.301l-0.198,-0.299l-0.2,-0.298l-0.202,-0.297l-0.203,-0.295l-0.206,-0.294l-0.207,-0.293l-0.208,-0.292l-0.211,-0.29l-0.212,-0.289l-0.214,-0.288l-0.215,-0.286l-0.217,-0.285l-0.219,-0.283l-0.221,-0.283l-0.222,-0.281l-0.224,-0.279l-0.225,-0.278l-0.227,-0.277l-0.229,-0.275l-0.23,-0.274l-0.232,-0.273l-0.234,-0.271l-0.235,-0.27l-0.236,-0.268l-0.239,-0.267l-0.24,-0.266l-0.241,-0.264l-0.243,-0.262l-0.245,-0.261l-0.246,-0.26l-0.247,-0.258l-0.249,-0.257l-0.251,-0.255l-0.252,-0.254l-0.254,-0.252l-0.255,-0.251l-0.257,-0.249l-0.258,-0.247l-0.26,-0.246l-0.261,-0.245l-0.262,-0.243l-0.264,-0.241l-0.266,-0.24l-0.267,-0.239l-0.268,-0.236l-0.27,-0.235l-0.271,-0.234l-0.273,-0.232l-0.274,-0.23l-0.275,-0.229l-0.277,-0.227l-0.278,-0.225l-0.279,-0.224l-0.281,-0.222l-0.283,-0.221l-0.283,-0.219l-0.285,-0.217l-0.286,-0.215l-0.288,-0.214l-0.289,-0.212l-0.29,-0.211l-0.292,-0.208l-0.293,-0.207l-0.294,-0.206l-0.295,-0.203l-0.297,-0.202l-0.298,-0.2l-0.299,-0.198l-0.301,-0.197l-0.301,-0.195l-0.303,-0.193l-0.304,-0.191l-0.306,-0.19l-0.307,-0.187l-0.307,-0.186l-0.309,-0.184l-0.311,-0.182l-0.311,-0.181l-0.313,-0.178l-0.314,-0.177l-0.314,-0.175l-0.317,-0.173l-0.317,-0.171l-0.318,-0.17l-0.32,-0.167l-0.321,-0.166l-0.321,-0.163l-0.323,-0.162l-0.324,-0.16l-0.325,-0.158l-0.327,-0.156l-0.327,-0.154l-0.328,-0.152l-0.33,-0.151l-0.33,-0.148l-0.332,-0.146l-0.332,-0.145l-0.334,-0.142l-0.335,-0.141l-0.335,-0.138l-0.337,-0.137l-0.338,-0.134l-0.339,-0.133l-0.339,-0.13l-0.341,-0.128l-0.342,-0.127l-0.342,-0.124l-0.344,-0.123l-0.345,-0.12l-0.345,-0.118l-0.347,-0.116l-0.347,-0.114l-0.349,-0.112l-0.349,-0.11l-0.35,-0.108l-0.351,-0.106l-0.352,-0.104l-0.353,-0.101l-0.354,-0.099l-0.355,-0.098l-0.356,-0.095l-0.356,-0.093l-0.357,-0.091l-0.359,-0.088l-0.359,-0.087l-0.359,-0.084l-0.361,-0.082l-0.362,-0.08l-0.362,-0.078l-0.363,-0.076l-0.364,-0.073l-0.365,-0.071l-0.365,-0.069l-0.367,-0.067l-0.367,-0.064l-0.368,-0.063l-0.368,-0.06l-0.37,-0.057l-0.37,-0.056l-0.371,-0.053l-0.371,-0.051l-0.373,-0.048l-0.373,-0.047l-0.374,-0.044l-0.374,-0.041l-0.375,-0.04l-0.376,-0.037l-0.377,-0.034l-0.377,-0.033l-0.378,-0.03l-0.379,-0.027l-0.379,-0.026l-0.38,-0.022l-0.38,-0.021l-0.381,-0.018l-0.382,-0.016l-0.383,-0.013l-0.383,-0.011l-0.383,-0.009l-0.385,-0.006l-0.385,-0.003l-0.385,-0.002l-0.385,0.002Z" style="fill:#18181b;"/><text x="6.152px" y="84.852px" style="font-family:'Lato-Regular', 'Lato', sans-serif;font-size:65.352px;fill:#fff;">MN</text></g><defs><radialGradient id="_Radial2" cx="0" cy="0" r="1" gradientUnits="userSpaceOnUse" gradientTransform="matrix(117.877,0,0,117.877,24,19.2)"><stop offset="0" style="stop-color:#484848;stop-opacity:1"/><stop offset="1" style="stop-color:#161619;stop-opacity:1"/></radialGradient></defs></svg>